<?xml version="1.0" standalone="no"?>
<!DOCTYPE svg PUBLIC "-//W3C//DTD SVG 20010904//EN"
 "http://www.w3.org/TR/2001/REC-SVG-20010904/DTD/svg10.dtd">
<svg version="1.0" xmlns="http://www.w3.org/2000/svg"
 width="100%" viewBox="0 0 477.000000 324.000000"
 preserveAspectRatio="xMidYMid meet">

<g transform="translate(0.000000,324.000000) scale(0.100000,-0.100000)"
fill="#4D0DB7" stroke="none">
<path d="M1632 1658 c-139 -519 -252 -946 -252 -950 0 -5 35 -8 78 -8 l77 0
248 928 c137 510 251 937 254 950 5 21 3 22 -74 22 l-79 0 -252 -942z"/>
<path d="M2853 2277 c-105 -45 -165 -117 -209 -249 -25 -74 -51 -116 -111
-179 l-34 -36 140 -140 140 -140 48 44 c59 55 113 87 187 113 119 40 182 87
234 171 31 51 31 169 0 242 -68 162 -244 239 -395 174z"/>
<path d="M835 1860 l-490 -248 0 -42 0 -42 495 -249 c272 -137 498 -249 503
-249 4 0 7 35 7 78 l0 77 -387 194 -388 193 388 194 387 194 0 75 c0 54 -3 75
-12 74 -7 -1 -233 -113 -503 -249z"/>
<path d="M3380 2032 l0 -77 387 -194 388 -193 -388 -194 -387 -194 0 -75 c0
-41 3 -75 8 -74 4 0 230 112 502 248 l495 248 3 41 3 41 -500 251 c-276 137
-503 250 -506 250 -3 0 -5 -35 -5 -78z"/>
<path d="M2050 1934 c-25 -9 -50 -20 -57 -26 -8 -7 113 -134 428 -449 242
-241 443 -439 447 -439 4 0 15 19 25 43 22 55 22 154 0 204 -22 49 -589 622
-645 652 -55 29 -141 36 -198 15z"/>
<path d="M2085 1628 c-45 -25 -128 -104 -158 -152 -51 -79 -61 -112 -61 -201
0 -73 3 -89 32 -146 44 -85 80 -124 156 -169 72 -42 104 -50 204 -51 78 -1
138 21 220 80 45 34 112 128 112 159 0 16 -38 62 -51 62 -3 0 -22 -24 -43 -54
-75 -109 -137 -146 -245 -146 -119 0 -178 33 -238 132 -42 69 -52 147 -29 218
9 29 22 59 29 67 40 49 77 83 114 102 54 27 57 33 32 65 -29 37 -51 46 -74 34z"/>
</g>
</svg>
